<?xml version="1.0" encoding="utf-8"?>
<!-- Generator: Adobe Illustrator 19.2.0, SVG Export Plug-In . SVG Version: 6.00 Build 0)  -->
<svg xmlns="http://www.w3.org/2000/svg" xmlns:xlink="http://www.w3.org/1999/xlink" version="1.1" id="playstationcontroller" x="0px" y="0px" viewBox="0 0 228.2524 196.1777" enable-background="new 0 0 228.2524 196.1777" xml:space="preserve" width="512" height="512">
<g>
	<rect x="44" y="88.1777" fill="#D0E8FF" width="8" height="8"/>
	<path fill="#5CB0FF" d="M136,76.1777c0,10.5015,4.0999,20.042,10.7432,27.1863c1.854,1.189,3.4543,2.6978,4.8245,4.4136   c6.7664,5.2439,15.2288,8.4001,24.4324,8.4001c22.0566,0,40-17.9453,40-40s-17.9434-40-40-40S136,54.123,136,76.1777z    M176,108.1777c-6.6172,0-12-5.3828-12-12s5.3828-12,12-12s12,5.3828,12,12S182.6172,108.1777,176,108.1777z M200,64.1777   c6.6172,0,12,5.3828,12,12s-5.3828,12-12,12s-12-5.3828-12-12S193.3828,64.1777,200,64.1777z M176,44.1777   c6.6172,0,12,5.3828,12,12s-5.3828,12-12,12s-12-5.3828-12-12S169.3828,44.1777,176,44.1777z M164,76.1777   c0,6.6172-5.3828,12-12,12s-12-5.3828-12-12s5.3828-12,12-12S164,69.5605,164,76.1777z"/>
	<rect x="44" y="72.1777" fill="#D0E8FF" width="8" height="8"/>
	<rect x="60" y="72.1777" fill="#D0E8FF" width="8" height="8"/>
	<rect x="44" y="56.1777" fill="#D0E8FF" width="8" height="8"/>
	<circle fill="#D0E8FF" cx="152" cy="76.1777" r="4"/>
	<circle fill="#D0E8FF" cx="176" cy="96.1777" r="4"/>
	<circle fill="#D0E8FF" cx="176" cy="56.1777" r="4"/>
	<circle fill="#D0E8FF" cx="200" cy="76.1777" r="4"/>
	<rect x="28" y="72.1777" fill="#D0E8FF" width="8" height="8"/>
	<path fill="#D0E8FF" d="M146.0183,113.6025c-1.5227-1.2222-2.9692-2.5308-4.3318-3.9263c-1.7004-0.925-3.6184-1.4985-5.6865-1.4985   c-6.6172,0-12,5.3828-12,12s5.3828,12,12,12c6.5603,0,11.8918-5.2952,11.9832-11.8342l-1.2-5.334   C146.5505,114.5264,146.3113,114.0471,146.0183,113.6025z"/>
	<path fill="#5CB0FF" d="M176,124.1777c-7.1201,0-13.8596-1.6003-19.9424-4.3938l11.6982,51.9954   c2,8.8906,11.3848,16.3984,20.4941,16.3984h3.9922c8.9746,0,16.7988-7.2852,17.4395-16.2422l4.7988-67.187   C205.7236,116.5112,191.7578,124.1777,176,124.1777z"/>
	<path fill="#D0E8FF" d="M88,108.1777c-2.0684,0-3.9863,0.5737-5.6868,1.4988c-1.3628,1.3955-2.8088,2.7039-4.3315,3.926   c-0.1321,0.2007-0.2249,0.426-0.345,0.6345l-1.5437,6.8613c0.4795,6.1809,5.605,11.0793,11.907,11.0793c6.6172,0,12-5.3828,12-12   S94.6172,108.1777,88,108.1777z"/>
	<path fill="#D0E8FF" d="M128,76.1777c0-10.4543,3.397-20.1086,9.0925-28H86.9075C92.603,56.0691,96,65.7234,96,76.1777   c0,8.8074-2.4248,17.0408-6.5815,24.1433c9.0103,0.6465,16.4121,7.198,18.1772,15.8567h8.8086   c1.7651-8.6587,9.167-15.2102,18.1772-15.8567C130.4248,93.2185,128,84.9851,128,76.1777z M120,68.1777h-16v-8h16V68.1777z"/>
	<path fill="#5CB0FF" d="M68.0449,119.7346c-6.1096,2.8235-12.8845,4.4431-20.0449,4.4431c-15.5952,0-29.4353-7.509-38.2085-19.0657   l4.7729,66.8235c0.6387,8.957,8.4629,16.2422,17.4395,16.2422h3.9922c9.1094,0,18.4941-7.5078,20.4941-16.3984l11.5408-51.2949   c-0.0017-0.1047-0.031-0.2017-0.031-0.3066C68,120.0259,68.0415,119.8855,68.0449,119.7346z"/>
	<path fill="#5CB0FF" d="M48,116.1777c9.2036,0,17.666-3.1562,24.4324-8.4001c1.3701-1.7158,2.9705-3.2246,4.8245-4.4136   C83.9001,96.2197,88,86.6792,88,76.1777c0-22.0547-17.9434-40-40-40s-40,17.9453-40,40S25.9434,116.1777,48,116.1777z M20,68.1777   c0-2.2109,1.791-4,4-4h12v-12c0-2.2109,1.791-4,4-4h16c2.209,0,4,1.7891,4,4v12h12c2.209,0,4,1.7891,4,4v16c0,2.2109-1.791,4-4,4   H60v12c0,2.2109-1.791,4-4,4H40c-2.209,0-4-1.7891-4-4v-12H24c-2.209,0-4-1.7891-4-4V68.1777z"/>
	<path fill="#1C71DA" d="M176,68.1777c6.6172,0,12-5.3828,12-12s-5.3828-12-12-12s-12,5.3828-12,12S169.3828,68.1777,176,68.1777z    M176,52.1777c2.2051,0,4,1.793,4,4s-1.7949,4-4,4s-4-1.793-4-4S173.7949,52.1777,176,52.1777z"/>
	<path fill="#1C71DA" d="M176,84.1777c-6.6172,0-12,5.3828-12,12s5.3828,12,12,12s12-5.3828,12-12S182.6172,84.1777,176,84.1777z    M176,100.1777c-2.2051,0-4-1.793-4-4s1.7949-4,4-4s4,1.793,4,4S178.2051,100.1777,176,100.1777z"/>
	<path fill="#1C71DA" d="M140,76.1777c0,6.6172,5.3828,12,12,12s12-5.3828,12-12s-5.3828-12-12-12S140,69.5605,140,76.1777z    M152,72.1777c2.2051,0,4,1.793,4,4s-1.7949,4-4,4s-4-1.793-4-4S149.7949,72.1777,152,72.1777z"/>
	<path fill="#1C71DA" d="M200,88.1777c6.6172,0,12-5.3828,12-12s-5.3828-12-12-12s-12,5.3828-12,12S193.3828,88.1777,200,88.1777z    M200,72.1777c2.2051,0,4,1.793,4,4s-1.7949,4-4,4s-4-1.793-4-4S197.7949,72.1777,200,72.1777z"/>
	<path fill="#1C71DA" d="M223.8765,78.6152c0.041-0.8127,0.1235-1.6147,0.1235-2.4375c0-26.4688-21.5332-48-48-48   c-12.147,0-23.2214,4.572-31.6853,12.0383c-0.0664-0.0032-0.1223-0.0383-0.1897-0.0383H80c-0.1035,0-0.1904,0.051-0.292,0.0588   C71.2412,32.7581,60.158,28.1777,48,28.1777c-26.4668,0-48,21.5312-48,48c0,1.0569,0.0911,2.0908,0.1587,3.1309   c-0.0854,0.3752-0.1775,0.7507-0.1489,1.1543l6.5742,92.043c0.9316,13.0508,12.3359,23.6719,25.4199,23.6719h3.9922   c13.0117,0,25.4414-9.9453,28.2988-22.6406l8.9846-39.9331c3.6602,4.01,8.8767,6.5737,14.7205,6.5737   c9.6577,0,17.7371-6.8828,19.5957-16h8.8086c1.8586,9.1172,9.938,16,19.5957,16c5.9529,0,11.2471-2.667,14.9141-6.8081   l9.0371,40.1675c2.8574,12.6953,15.2871,22.6406,28.2988,22.6406h3.9922c13.082,0,24.4863-10.6172,25.4199-23.6719l6.5742-92.043   C224.2834,79.7993,224.124,79.1863,223.8765,78.6152z M216,76.1777c0,22.0547-17.9434,40-40,40   c-9.2036,0-17.666-3.1562-24.4324-8.4001c-1.3701-1.7158-2.9705-3.2246-4.8245-4.4136C140.0999,96.2197,136,86.6792,136,76.1777   c0-22.0547,17.9434-40,40-40S216,54.123,216,76.1777z M48,36.1777c22.0566,0,40,17.9453,40,40   c0,10.5015-4.0999,20.042-10.7432,27.1863c-1.854,1.189-3.4543,2.6978-4.8245,4.4136c-6.7664,5.2439-15.2288,8.4001-24.4324,8.4001   c-22.0566,0-40-17.9453-40-40S25.9434,36.1777,48,36.1777z M56.4902,171.7793c-2,8.8906-11.3848,16.3984-20.4941,16.3984h-3.9922   c-8.9766,0-16.8008-7.2852-17.4395-16.2422l-4.7729-66.8235C18.5647,116.6687,32.4048,124.1777,48,124.1777   c7.1604,0,13.9353-1.6196,20.0449-4.4431C68.0415,119.8855,68,120.0259,68,120.1777c0,0.105,0.0293,0.2019,0.031,0.3066   L56.4902,171.7793z M88,132.1777c-6.302,0-11.4275-4.8984-11.907-11.0793l1.5437-6.8613c0.1201-0.2085,0.2129-0.4338,0.345-0.6345   c1.5227-1.2222,2.9688-2.5305,4.3315-3.926c1.7004-0.925,3.6184-1.4988,5.6868-1.4988c6.6172,0,12,5.3828,12,12   S94.6172,132.1777,88,132.1777z M116.4043,116.1777h-8.8086c-1.7651-8.6587-9.167-15.2102-18.1772-15.8567   C93.5752,93.2185,96,84.9851,96,76.1777c0-10.4543-3.397-20.1086-9.0925-28h50.1851c-5.6956,7.8914-9.0925,17.5457-9.0925,28   c0,8.8074,2.4248,17.0408,6.5815,24.1433C125.5713,100.9675,118.1694,107.519,116.4043,116.1777z M136,132.1777   c-6.6172,0-12-5.3828-12-12s5.3828-12,12-12c2.0681,0,3.9861,0.5735,5.6865,1.4985c1.3625,1.3955,2.8091,2.7041,4.3318,3.9263   c0.293,0.4446,0.5322,0.9238,0.7649,1.407l1.2,5.334C147.8918,126.8826,142.5603,132.1777,136,132.1777z M192.2422,188.1777H188.25   c-9.1094,0-18.4941-7.5078-20.4941-16.3984l-11.6982-51.9954c6.0828,2.7935,12.8223,4.3938,19.9424,4.3938   c15.7578,0,29.7236-7.6665,38.4805-19.4292l-4.7988,67.187C209.041,180.8926,201.2168,188.1777,192.2422,188.1777z"/>
	<path fill="#1C71DA" d="M24,88.1777h12v12c0,2.2109,1.791,4,4,4h16c2.209,0,4-1.7891,4-4v-12h12c2.209,0,4-1.7891,4-4v-16   c0-2.2109-1.791-4-4-4H60v-12c0-2.2109-1.791-4-4-4H40c-2.209,0-4,1.7891-4,4v12H24c-2.209,0-4,1.7891-4,4v16   C20,86.3887,21.791,88.1777,24,88.1777z M52,96.1777h-8v-8h8V96.1777z M44,80.1777v-8h8v8H44z M68,72.1777v8h-8v-8H68z M44,56.1777   h8v8h-8V56.1777z M28,72.1777h8v8h-8V72.1777z"/>
	<rect x="104" y="60.1777" fill="#1C71DA" width="16" height="8"/>
</g>
<path fill="#FF5D5D" d="M100.2524,28c-1.0239,0-2.0474-0.3906-2.8286-1.1719c-1.562-1.5615-1.562-4.0947,0-5.6562l14.1421-14.1416  c1.563-1.5625,4.0952-1.5615,5.6572,0s1.562,4.0947,0,5.6562l-14.1421,14.1416C102.2998,27.6094,101.2759,28,100.2524,28z"/>
<path fill="#FF5D5D" d="M114.3945,28c-1.0239,0-2.0474-0.3906-2.8286-1.1719L97.4238,12.6865c-1.562-1.5615-1.562-4.0947,0-5.6562  c1.5625-1.5625,4.0947-1.5625,5.6572,0l14.1421,14.1416c1.562,1.5615,1.562,4.0947,0,5.6562  C116.4419,27.6094,115.4185,28,114.3945,28z"/>
<path fill="#00D40B" d="M214.2524,28c-7.7197,0-14-6.2803-14-14s6.2803-14,14-14s14,6.2803,14,14S221.9722,28,214.2524,28z   M214.2524,8c-3.3086,0-6,2.6914-6,6s2.6914,6,6,6s6-2.6914,6-6S217.561,8,214.2524,8z"/>
<path fill="#FFC504" d="M135.5659,194.6279L135.5659,194.6279c-1.061,0-2.0786-0.4219-2.8286-1.1719l-11.3135-11.3145  c-1.562-1.5615-1.562-4.0947,0-5.6562l11.3135-11.3135c1.5625-1.5625,4.0952-1.5625,5.6567,0l11.314,11.3135  c0.7505,0.75,1.1719,1.7676,1.1719,2.8281s-0.4214,2.0781-1.1714,2.8281l-11.314,11.3145  C137.6445,194.2061,136.627,194.6279,135.5659,194.6279z M129.9092,179.3135l5.6567,5.6572l5.6572-5.6572l-5.6572-5.6562  L129.9092,179.3135z"/>
</svg>
